<?xml version="1.0" encoding="UTF-8"?>
<!--
 # SPDX-FileCopyrightText: <text>Copyright 2023-2024 Arm Limited and/or its
 # affiliates <open-source-office@arm.com></text>
 #
 # SPDX-License-Identifier: MIT
-->
<!DOCTYPE svg PUBLIC "-//W3C//DTD SVG 1.1//EN" "http://www.w3.org/Graphics/SVG/1.1/DTD/svg11.dtd">
<svg xmlns="http://www.w3.org/2000/svg" xmlns:xlink="http://www.w3.org/1999/xlink" version="1.1" width="1480px" height="990px" viewBox="-0.5 -0.5 1480 990"><defs/><g><rect x="40.42" y="549" width="160" height="370" fill="none" stroke="rgb(0, 0, 0)" pointer-events="all"/><g transform="translate(-0.5 -0.5)"><switch><foreignObject pointer-events="none" width="100%" height="100%" requiredFeatures="http://www.w3.org/TR/SVG11/feature#Extensibility" style="overflow: visible; text-align: left;"><div xmlns="http://www.w3.org/1999/xhtml" style="display: flex; align-items: unsafe flex-start; justify-content: unsafe center; width: 158px; height: 1px; padding-top: 556px; margin-left: 41px;"><div data-drawio-colors="color: #333E48; " style="box-sizing: border-box; font-size: 0px; text-align: center;"><div style="display: inline-block; font-size: 12px; font-family: Helvetica; color: rgb(51, 62, 72); line-height: 1.2; pointer-events: all; white-space: normal; overflow-wrap: normal;"><span style="font-size: 16px;"><b style="font-size: 13px;">Legend</b></span></div></div></div></foreignObject><text x="120" y="568" fill="#333E48" font-family="Helvetica" font-size="12px" text-anchor="middle">Legend</text></switch></g><path d="M 60 160 L 60 200 L 131.31 200" fill="none" stroke="#333e48" stroke-width="3" stroke-miterlimit="10" pointer-events="stroke"/><path d="M 138.06 200 L 129.06 204.5 L 131.31 200 L 129.06 195.5 Z" fill="#333e48" stroke="#333e48" stroke-width="3" stroke-miterlimit="10" pointer-events="all"/><path d="M 181.41 220 L 181.4 259.8 L 250.9 259.76" fill="none" stroke="#333e48" stroke-width="3" stroke-miterlimit="10" pointer-events="stroke"/><path d="M 257.65 259.75 L 248.65 264.26 L 250.9 259.76 L 248.64 255.26 Z" fill="#333e48" stroke="#333e48" stroke-width="3" stroke-miterlimit="10" pointer-events="all"/><rect x="141.41" y="180" width="80" height="40" fill="none" stroke="#95d600" stroke-width="2" pointer-events="all"/><g transform="translate(-0.5 -0.5)"><switch><foreignObject pointer-events="none" width="100%" height="100%" requiredFeatures="http://www.w3.org/TR/SVG11/feature#Extensibility" style="overflow: visible; text-align: left;"><div xmlns="http://www.w3.org/1999/xhtml" style="display: flex; align-items: unsafe center; justify-content: unsafe center; width: 78px; height: 1px; padding-top: 200px; margin-left: 142px;"><div data-drawio-colors="color: rgb(0, 0, 0); " style="box-sizing: border-box; font-size: 0px; text-align: center;"><div style="display: inline-block; font-size: 12px; font-family: Helvetica; color: rgb(0, 0, 0); line-height: 1.2; pointer-events: all; white-space: normal; overflow-wrap: normal;">RSS BL1_2</div></div></div></foreignObject><text x="181" y="204" fill="rgb(0, 0, 0)" font-family="Helvetica" font-size="12px" text-anchor="middle">RSS BL1_2</text></switch></g><path d="M 380 339 L 411.9 339" fill="none" stroke="#00ccff" stroke-width="3" stroke-miterlimit="10" pointer-events="stroke"/><path d="M 418.65 339 L 409.65 343.5 L 411.9 339 L 409.65 334.5 Z" fill="#00ccff" stroke="#00ccff" stroke-width="3" stroke-miterlimit="10" pointer-events="all"/><path d="M 321 279.75 L 320 279.8 L 320 308.9" fill="none" stroke="#333e48" stroke-width="3" stroke-miterlimit="10" pointer-events="stroke"/><path d="M 320 315.65 L 315.5 306.65 L 320 308.9 L 324.5 306.65 Z" fill="#333e48" stroke="#333e48" stroke-width="3" stroke-miterlimit="10" pointer-events="all"/><rect x="261" y="239.75" width="80" height="40" fill="none" stroke="#95d600" stroke-width="2" pointer-events="all"/><g transform="translate(-0.5 -0.5)"><switch><foreignObject pointer-events="none" width="100%" height="100%" requiredFeatures="http://www.w3.org/TR/SVG11/feature#Extensibility" style="overflow: visible; text-align: left;"><div xmlns="http://www.w3.org/1999/xhtml" style="display: flex; align-items: unsafe center; justify-content: unsafe center; width: 78px; height: 1px; padding-top: 260px; margin-left: 262px;"><div data-drawio-colors="color: rgb(0, 0, 0); " style="box-sizing: border-box; font-size: 0px; text-align: center;"><div style="display: inline-block; font-size: 12px; font-family: Helvetica; color: rgb(0, 0, 0); line-height: 1.2; pointer-events: all; white-space: normal; overflow-wrap: normal;">RSS BL2</div></div></div></foreignObject><text x="301" y="263" fill="rgb(0, 0, 0)" font-family="Helvetica" font-size="12px" text-anchor="middle">RSS BL2</text></switch></g><rect x="300" y="319" width="80" height="40" fill="none" stroke="#95d600" stroke-width="2" pointer-events="all"/><g transform="translate(-0.5 -0.5)"><switch><foreignObject pointer-events="none" width="100%" height="100%" requiredFeatures="http://www.w3.org/TR/SVG11/feature#Extensibility" style="overflow: visible; text-align: left;"><div xmlns="http://www.w3.org/1999/xhtml" style="display: flex; align-items: unsafe center; justify-content: unsafe center; width: 78px; height: 1px; padding-top: 339px; margin-left: 301px;"><div data-drawio-colors="color: rgb(0, 0, 0); " style="box-sizing: border-box; font-size: 0px; text-align: center;"><div style="display: inline-block; font-size: 12px; font-family: Helvetica; color: rgb(0, 0, 0); line-height: 1.2; pointer-events: all; white-space: normal; overflow-wrap: normal;">RSS Runtime</div></div></div></foreignObject><text x="340" y="343" fill="rgb(0, 0, 0)" font-family="Helvetica" font-size="12px" text-anchor="middle">RSS Runtime</text></switch></g><rect x="540" y="400" width="80" height="40" fill="none" stroke="#ffc700" stroke-width="2" pointer-events="all"/><g transform="translate(-0.5 -0.5)"><switch><foreignObject pointer-events="none" width="100%" height="100%" requiredFeatures="http://www.w3.org/TR/SVG11/feature#Extensibility" style="overflow: visible; text-align: left;"><div xmlns="http://www.w3.org/1999/xhtml" style="display: flex; align-items: unsafe center; justify-content: unsafe center; width: 78px; height: 1px; padding-top: 420px; margin-left: 541px;"><div data-drawio-colors="color: rgb(0, 0, 0); " style="box-sizing: border-box; font-size: 0px; text-align: center;"><div style="display: inline-block; font-size: 12px; font-family: Helvetica; color: rgb(0, 0, 0); line-height: 1.2; pointer-events: all; white-space: normal; overflow-wrap: normal;">SI CL0</div></div></div></foreignObject><text x="580" y="424" fill="rgb(0, 0, 0)" font-family="Helvetica" font-size="12px" text-anchor="middle">SI CL0</text></switch></g><path d="M 462 359 L 462 420 L 529.9 420" fill="none" stroke="#00ccff" stroke-width="3" stroke-miterlimit="10" pointer-events="stroke"/><path d="M 536.65 420 L 527.65 424.5 L 529.9 420 L 527.65 415.5 Z" fill="#00ccff" stroke="#00ccff" stroke-width="3" stroke-miterlimit="10" pointer-events="all"/><path d="M 462 359 L 462 660.7 L 930.9 660.72" fill="none" stroke="#00ccff" stroke-width="3" stroke-miterlimit="10" pointer-events="stroke"/><path d="M 937.65 660.72 L 928.65 665.22 L 930.9 660.72 L 928.65 656.22 Z" fill="#00ccff" stroke="#00ccff" stroke-width="3" stroke-miterlimit="10" pointer-events="all"/><rect x="422" y="319" width="80" height="40" fill="none" stroke="#0091bd" stroke-width="2" pointer-events="all"/><g transform="translate(-0.5 -0.5)"><switch><foreignObject pointer-events="none" width="100%" height="100%" requiredFeatures="http://www.w3.org/TR/SVG11/feature#Extensibility" style="overflow: visible; text-align: left;"><div xmlns="http://www.w3.org/1999/xhtml" style="display: flex; align-items: unsafe center; justify-content: unsafe center; width: 78px; height: 1px; padding-top: 339px; margin-left: 423px;"><div data-drawio-colors="color: rgb(0, 0, 0); " style="box-sizing: border-box; font-size: 0px; text-align: center;"><div style="display: inline-block; font-size: 12px; font-family: Helvetica; color: rgb(0, 0, 0); line-height: 1.2; pointer-events: all; white-space: normal; overflow-wrap: normal;">SCP RAMFW</div></div></div></foreignObject><text x="462" y="343" fill="rgb(0, 0, 0)" font-family="Helvetica" font-size="12px" text-anchor="middle">SCP RAMFW</text></switch></g><path d="M 1060 760.78 L 1060 891.8 L 1250.9 891.78" fill="none" stroke="#333e48" stroke-width="3" stroke-miterlimit="10" pointer-events="stroke"/><path d="M 1257.65 891.78 L 1248.65 896.28 L 1250.9 891.78 L 1248.65 887.28 Z" fill="#333e48" stroke="#333e48" stroke-width="3" stroke-miterlimit="10" pointer-events="all"/><rect x="1020" y="720.78" width="80" height="40" fill="none" stroke="#ff6b00" stroke-width="2" pointer-events="all"/><g transform="translate(-0.5 -0.5)"><switch><foreignObject pointer-events="none" width="100%" height="100%" requiredFeatures="http://www.w3.org/TR/SVG11/feature#Extensibility" style="overflow: visible; text-align: left;"><div xmlns="http://www.w3.org/1999/xhtml" style="display: flex; align-items: unsafe center; justify-content: unsafe center; width: 78px; height: 1px; padding-top: 741px; margin-left: 1021px;"><div data-drawio-colors="color: rgb(0, 0, 0); " style="box-sizing: border-box; font-size: 0px; text-align: center;"><div style="display: inline-block; font-size: 12px; font-family: Helvetica; color: rgb(0, 0, 0); line-height: 1.2; pointer-events: all; white-space: normal; overflow-wrap: normal;">AP BL31</div></div></div></foreignObject><text x="1060" y="744" fill="rgb(0, 0, 0)" font-family="Helvetica" font-size="12px" text-anchor="middle">AP BL31</text></switch></g><path d="M 1301 911.78 L 1301 949.8 L 1370.9 949.78" fill="none" stroke="#333e48" stroke-width="3" stroke-miterlimit="10" pointer-events="stroke"/><path d="M 1377.65 949.78 L 1368.65 954.28 L 1370.9 949.78 L 1368.64 945.28 Z" fill="#333e48" stroke="#333e48" stroke-width="3" stroke-miterlimit="10" pointer-events="all"/><rect x="1261" y="871.78" width="80" height="40" fill="none" stroke="#002b49" stroke-width="2" pointer-events="all"/><g transform="translate(-0.5 -0.5)"><switch><foreignObject pointer-events="none" width="100%" height="100%" requiredFeatures="http://www.w3.org/TR/SVG11/feature#Extensibility" style="overflow: visible; text-align: left;"><div xmlns="http://www.w3.org/1999/xhtml" style="display: flex; align-items: unsafe center; justify-content: unsafe center; width: 78px; height: 1px; padding-top: 892px; margin-left: 1262px;"><div data-drawio-colors="color: rgb(0, 0, 0); " style="box-sizing: border-box; font-size: 0px; text-align: center;"><div style="display: inline-block; font-size: 12px; font-family: Helvetica; color: rgb(0, 0, 0); line-height: 1.2; pointer-events: all; white-space: normal; overflow-wrap: normal;">AP BL33</div></div></div></foreignObject><text x="1301" y="895" fill="rgb(0, 0, 0)" font-family="Helvetica" font-size="12px" text-anchor="middle">AP BL33</text></switch></g><rect x="1381" y="929.78" width="80" height="40" fill="none" stroke="#002b49" stroke-width="2" pointer-events="all"/><g transform="translate(-0.5 -0.5)"><switch><foreignObject pointer-events="none" width="100%" height="100%" requiredFeatures="http://www.w3.org/TR/SVG11/feature#Extensibility" style="overflow: visible; text-align: left;"><div xmlns="http://www.w3.org/1999/xhtml" style="display: flex; align-items: unsafe center; justify-content: unsafe center; width: 78px; height: 1px; padding-top: 950px; margin-left: 1382px;"><div data-drawio-colors="color: rgb(0, 0, 0); " style="box-sizing: border-box; font-size: 0px; text-align: center;"><div style="display: inline-block; font-size: 12px; font-family: Helvetica; color: rgb(0, 0, 0); line-height: 1.2; pointer-events: all; white-space: normal; overflow-wrap: normal;">Linux</div></div></div></foreignObject><text x="1421" y="953" fill="rgb(0, 0, 0)" font-family="Helvetica" font-size="12px" text-anchor="middle">Linux</text></switch></g><path d="M 400 400 L 400 80" fill="none" stroke="#333e48" stroke-miterlimit="10" stroke-dasharray="3 3" pointer-events="stroke"/><rect x="35" y="60" width="60" height="30" fill="none" stroke="none" pointer-events="all"/><g transform="translate(-0.5 -0.5)"><switch><foreignObject pointer-events="none" width="100%" height="100%" requiredFeatures="http://www.w3.org/TR/SVG11/feature#Extensibility" style="overflow: visible; text-align: left;"><div xmlns="http://www.w3.org/1999/xhtml" style="display: flex; align-items: unsafe center; justify-content: unsafe flex-start; width: 58px; height: 1px; padding-top: 75px; margin-left: 37px;"><div data-drawio-colors="color: #333E48; " style="box-sizing: border-box; font-size: 0px; text-align: left;"><div style="display: inline-block; font-size: 12px; font-family: Helvetica; color: rgb(51, 62, 72); line-height: 1.2; pointer-events: all; white-space: normal; overflow-wrap: normal;">RSS ROM</div></div></div></foreignObject><text x="37" y="79" fill="#333E48" font-family="Helvetica" font-size="12px">RSS ROM</text></switch></g><rect x="427" y="60" width="70" height="30" fill="none" stroke="none" pointer-events="all"/><g transform="translate(-0.5 -0.5)"><switch><foreignObject pointer-events="none" width="100%" height="100%" requiredFeatures="http://www.w3.org/TR/SVG11/feature#Extensibility" style="overflow: visible; text-align: left;"><div xmlns="http://www.w3.org/1999/xhtml" style="display: flex; align-items: unsafe center; justify-content: unsafe center; width: 68px; height: 1px; padding-top: 75px; margin-left: 428px;"><div data-drawio-colors="color: #333E48; " style="box-sizing: border-box; font-size: 0px; text-align: center;"><div style="display: inline-block; font-size: 12px; font-family: Helvetica; color: rgb(51, 62, 72); line-height: 1.2; pointer-events: all; white-space: normal; overflow-wrap: normal;">SCP SRAM</div></div></div></foreignObject><text x="462" y="79" fill="#333E48" font-family="Helvetica" font-size="12px" text-anchor="middle">SCP SRAM</text></switch></g><rect x="625" y="60" width="70" height="30" fill="none" stroke="none" pointer-events="all"/><g transform="translate(-0.5 -0.5)"><switch><foreignObject pointer-events="none" width="100%" height="100%" requiredFeatures="http://www.w3.org/TR/SVG11/feature#Extensibility" style="overflow: visible; text-align: left;"><div xmlns="http://www.w3.org/1999/xhtml" style="display: flex; align-items: unsafe center; justify-content: unsafe center; width: 68px; height: 1px; padding-top: 75px; margin-left: 626px;"><div data-drawio-colors="color: #333E48; " style="box-sizing: border-box; font-size: 0px; text-align: center;"><div style="display: inline-block; font-size: 12px; font-family: Helvetica; color: rgb(51, 62, 72); line-height: 1.2; pointer-events: all; white-space: normal; overflow-wrap: normal;">SI LLRAM</div></div></div></foreignObject><text x="660" y="79" fill="#333E48" font-family="Helvetica" font-size="12px" text-anchor="middle">SI LLRAM</text></switch></g><rect x="970" y="60.26" width="96" height="30" fill="none" stroke="none" pointer-events="all"/><g transform="translate(-0.5 -0.5)"><switch><foreignObject pointer-events="none" width="100%" height="100%" requiredFeatures="http://www.w3.org/TR/SVG11/feature#Extensibility" style="overflow: visible; text-align: left;"><div xmlns="http://www.w3.org/1999/xhtml" style="display: flex; align-items: unsafe center; justify-content: unsafe center; width: 94px; height: 1px; padding-top: 75px; margin-left: 971px;"><div data-drawio-colors="color: #333E48; " style="box-sizing: border-box; font-size: 0px; text-align: center;"><div style="display: inline-block; font-size: 12px; font-family: Helvetica; color: rgb(51, 62, 72); line-height: 1.2; pointer-events: all; white-space: normal; overflow-wrap: normal;">Secure RAM</div></div></div></foreignObject><text x="1018" y="79" fill="#333E48" font-family="Helvetica" font-size="12px" text-anchor="middle">Secure RAM</text></switch></g><rect x="1310" y="60.26" width="107.81" height="30" fill="none" stroke="none" pointer-events="all"/><g transform="translate(-0.5 -0.5)"><switch><foreignObject pointer-events="none" width="100%" height="100%" requiredFeatures="http://www.w3.org/TR/SVG11/feature#Extensibility" style="overflow: visible; text-align: left;"><div xmlns="http://www.w3.org/1999/xhtml" style="display: flex; align-items: unsafe center; justify-content: unsafe center; width: 106px; height: 1px; padding-top: 75px; margin-left: 1311px;"><div data-drawio-colors="color: #333E48; " style="box-sizing: border-box; font-size: 0px; text-align: center;"><div style="display: inline-block; font-size: 12px; font-family: Helvetica; color: rgb(51, 62, 72); line-height: 1.2; pointer-events: all; white-space: normal; overflow-wrap: normal;">Normal DRAM</div></div></div></foreignObject><text x="1364" y="79" fill="#333E48" font-family="Helvetica" font-size="12px" text-anchor="middle">Normal DRAM</text></switch></g><path d="M 144.16 115.45 L 164.16 127.95 L 144.16 140.45 L 144.16 133.45 L 131.26 133.45 C 130.97 133.45 130.69 133.57 130.48 133.77 C 130.28 133.98 130.16 134.26 130.16 134.55 L 130.16 199.58 L 124.66 199.58 L 119.16 199.58 L 119.16 133.45 C 119.16 127.37 124.08 122.45 130.16 122.45 L 144.16 122.45 Z" fill="#9da8b0" stroke="none" transform="rotate(90,141.66,157.51)" pointer-events="all"/><path d="M 544.59 221.28 L 564.59 233.78 L 544.59 246.28 L 544.59 239.28 L 427.84 239.28 C 427.55 239.28 427.27 239.4 427.06 239.6 C 426.86 239.81 426.74 240.09 426.74 240.38 L 426.74 427.65 L 421.24 427.65 L 415.74 427.65 L 415.74 239.28 C 415.74 233.2 420.66 228.28 426.74 228.28 L 544.59 228.28 Z" fill="#9da8b0" stroke="none" transform="rotate(90,490.16,324.47)" pointer-events="all"/><path d="M 266.78 184.95 L 286.78 197.45 L 266.78 209.95 L 266.78 202.95 L 259.31 202.95 C 259.02 202.95 258.74 203.07 258.53 203.27 C 258.33 203.48 258.21 203.76 258.21 204.05 L 258.21 249.66 L 252.71 249.66 L 247.21 249.66 L 247.21 202.95 C 247.21 196.87 252.13 191.95 258.21 191.95 L 266.78 191.95 Z" fill="#9da8b0" stroke="none" transform="rotate(90,267,217.3)" pointer-events="all"/><path d="M 1156.71 724.91 L 1176.71 737.41 L 1156.71 749.91 L 1156.71 742.91 L 1122.89 742.91 C 1122.6 742.91 1122.32 743.03 1122.11 743.23 C 1121.91 743.44 1121.79 743.72 1121.79 744.01 L 1121.79 813.27 L 1116.29 813.27 L 1110.79 813.27 L 1110.79 742.91 C 1110.79 736.83 1115.71 731.91 1121.79 731.91 L 1156.71 731.91 Z" fill="#9da8b0" stroke="none" transform="rotate(90,1143.75,769.09)" pointer-events="all"/><path d="M 1388 864.72 L 1408 877.22 L 1388 889.72 L 1388 882.72 L 1376.1 882.72 C 1375.81 882.72 1375.53 882.84 1375.32 883.04 C 1375.12 883.25 1375 883.53 1375 883.82 L 1375 952.72 L 1369.5 952.72 L 1364 952.72 L 1364 882.72 C 1364 876.64 1368.92 871.72 1375 871.72 L 1388 871.72 Z" fill="#9da8b0" stroke="none" transform="rotate(90,1386,908.72)" pointer-events="all"/><path d="M 239 400 L 239.41 80" fill="none" stroke="#333e48" stroke-miterlimit="10" stroke-dasharray="3 3" pointer-events="stroke"/><path d="M 120 280 L 120 80" fill="none" stroke="#333e48" stroke-miterlimit="10" stroke-dasharray="3 3" pointer-events="stroke"/><rect x="151.41" y="60.26" width="60" height="30" fill="none" stroke="none" pointer-events="all"/><g transform="translate(-0.5 -0.5)"><switch><foreignObject pointer-events="none" width="100%" height="100%" requiredFeatures="http://www.w3.org/TR/SVG11/feature#Extensibility" style="overflow: visible; text-align: left;"><div xmlns="http://www.w3.org/1999/xhtml" style="display: flex; align-items: unsafe center; justify-content: unsafe flex-start; width: 58px; height: 1px; padding-top: 75px; margin-left: 153px;"><div data-drawio-colors="color: #333E48; " style="box-sizing: border-box; font-size: 0px; text-align: left;"><div style="display: inline-block; font-size: 12px; font-family: Helvetica; color: rgb(51, 62, 72); line-height: 1.2; pointer-events: all; white-space: normal; overflow-wrap: normal;">RSS OTP</div></div></div></foreignObject><text x="153" y="79" fill="#333E48" font-family="Helvetica" font-size="12px">RSS OTP</text></switch></g><rect x="284.63" y="60" width="67.37" height="30" fill="none" stroke="none" pointer-events="all"/><g transform="translate(-0.5 -0.5)"><switch><foreignObject pointer-events="none" width="100%" height="100%" requiredFeatures="http://www.w3.org/TR/SVG11/feature#Extensibility" style="overflow: visible; text-align: left;"><div xmlns="http://www.w3.org/1999/xhtml" style="display: flex; align-items: unsafe center; justify-content: unsafe flex-start; width: 65px; height: 1px; padding-top: 75px; margin-left: 287px;"><div data-drawio-colors="color: #333E48; " style="box-sizing: border-box; font-size: 0px; text-align: left;"><div style="display: inline-block; font-size: 12px; font-family: Helvetica; color: rgb(51, 62, 72); line-height: 1.2; pointer-events: all; white-space: normal; overflow-wrap: normal;">RSS SRAM</div></div></div></foreignObject><text x="287" y="79" fill="#333E48" font-family="Helvetica" font-size="12px">RSS SRAM</text></switch></g><rect x="20" y="120" width="80" height="40" fill="none" stroke="#95d600" stroke-width="2" pointer-events="all"/><g transform="translate(-0.5 -0.5)"><switch><foreignObject pointer-events="none" width="100%" height="100%" requiredFeatures="http://www.w3.org/TR/SVG11/feature#Extensibility" style="overflow: visible; text-align: left;"><div xmlns="http://www.w3.org/1999/xhtml" style="display: flex; align-items: unsafe center; justify-content: unsafe center; width: 78px; height: 1px; padding-top: 140px; margin-left: 21px;"><div data-drawio-colors="color: rgb(0, 0, 0); " style="box-sizing: border-box; font-size: 0px; text-align: center;"><div style="display: inline-block; font-size: 12px; font-family: Helvetica; color: rgb(0, 0, 0); line-height: 1.2; pointer-events: all; white-space: normal; overflow-wrap: normal;">RSS BL1_1</div></div></div></foreignObject><text x="60" y="144" fill="rgb(0, 0, 0)" font-family="Helvetica" font-size="12px" text-anchor="middle">RSS BL1_1</text></switch></g><path d="M 519 666 L 520 81" fill="none" stroke="#333e48" stroke-miterlimit="10" stroke-dasharray="3 3" pointer-events="stroke"/><rect x="620" y="459" width="80" height="40" fill="none" stroke="#ffc700" stroke-width="2" pointer-events="all"/><g transform="translate(-0.5 -0.5)"><switch><foreignObject pointer-events="none" width="100%" height="100%" requiredFeatures="http://www.w3.org/TR/SVG11/feature#Extensibility" style="overflow: visible; text-align: left;"><div xmlns="http://www.w3.org/1999/xhtml" style="display: flex; align-items: unsafe center; justify-content: unsafe center; width: 78px; height: 1px; padding-top: 479px; margin-left: 621px;"><div data-drawio-colors="color: rgb(0, 0, 0); " style="box-sizing: border-box; font-size: 0px; text-align: center;"><div style="display: inline-block; font-size: 12px; font-family: Helvetica; color: rgb(0, 0, 0); line-height: 1.2; pointer-events: all; white-space: normal; overflow-wrap: normal;">SI CL1</div></div></div></foreignObject><text x="660" y="483" fill="rgb(0, 0, 0)" font-family="Helvetica" font-size="12px" text-anchor="middle">SI CL1</text></switch></g><rect x="700" y="519.45" width="80" height="40" fill="none" stroke="#ffc700" stroke-width="2" pointer-events="all"/><g transform="translate(-0.5 -0.5)"><switch><foreignObject pointer-events="none" width="100%" height="100%" requiredFeatures="http://www.w3.org/TR/SVG11/feature#Extensibility" style="overflow: visible; text-align: left;"><div xmlns="http://www.w3.org/1999/xhtml" style="display: flex; align-items: unsafe center; justify-content: unsafe center; width: 78px; height: 1px; padding-top: 539px; margin-left: 701px;"><div data-drawio-colors="color: rgb(0, 0, 0); " style="box-sizing: border-box; font-size: 0px; text-align: center;"><div style="display: inline-block; font-size: 12px; font-family: Helvetica; color: rgb(0, 0, 0); line-height: 1.2; pointer-events: all; white-space: normal; overflow-wrap: normal;">SI CL2</div></div></div></foreignObject><text x="740" y="543" fill="rgb(0, 0, 0)" font-family="Helvetica" font-size="12px" text-anchor="middle">SI CL2</text></switch></g><path d="M 767.78 169.8 L 787.78 182.3 L 767.78 194.8 L 767.78 187.8 L 473.32 187.8 C 473.03 187.8 472.75 187.92 472.54 188.12 C 472.34 188.33 472.22 188.61 472.22 188.9 L 472.22 656.84 L 466.72 656.84 L 461.22 656.84 L 461.22 187.8 C 461.22 181.72 466.14 176.8 472.22 176.8 L 767.78 176.8 Z" fill="#9da8b0" stroke="none" transform="rotate(90,624.5,413.32)" pointer-events="all"/><path d="M 462 359 L 462 479 L 609.9 479" fill="none" stroke="#00ccff" stroke-width="3" stroke-miterlimit="10" pointer-events="stroke"/><path d="M 616.65 479 L 607.65 483.5 L 609.9 479 L 607.65 474.5 Z" fill="#00ccff" stroke="#00ccff" stroke-width="3" stroke-miterlimit="10" pointer-events="all"/><path d="M 462 359 L 462 539.4 L 689.9 539.45" fill="none" stroke="#00ccff" stroke-width="3" stroke-miterlimit="10" pointer-events="stroke"/><path d="M 696.65 539.45 L 687.65 543.95 L 689.9 539.45 L 687.65 534.95 Z" fill="#00ccff" stroke="#00ccff" stroke-width="3" stroke-miterlimit="10" pointer-events="all"/><path d="M 613.68 211.09 L 633.68 223.59 L 613.68 236.09 L 613.68 229.09 L 438.75 229.09 C 438.46 229.09 438.18 229.21 437.97 229.41 C 437.77 229.62 437.65 229.9 437.65 230.19 L 437.65 496 L 432.15 496 L 426.65 496 L 426.65 229.09 C 426.65 223.01 431.57 218.09 437.65 218.09 L 613.68 218.09 Z" fill="#9da8b0" stroke="none" transform="rotate(90,530.16,353.55)" pointer-events="all"/><rect x="822" y="577.72" width="80" height="40" fill="none" stroke="#0091bd" stroke-width="2" pointer-events="all"/><g transform="translate(-0.5 -0.5)"><switch><foreignObject pointer-events="none" width="100%" height="100%" requiredFeatures="http://www.w3.org/TR/SVG11/feature#Extensibility" style="overflow: visible; text-align: left;"><div xmlns="http://www.w3.org/1999/xhtml" style="display: flex; align-items: unsafe center; justify-content: unsafe center; width: 78px; height: 1px; padding-top: 598px; margin-left: 823px;"><div data-drawio-colors="color: rgb(0, 0, 0); " style="box-sizing: border-box; font-size: 0px; text-align: center;"><div style="display: inline-block; font-size: 12px; font-family: Helvetica; color: rgb(0, 0, 0); line-height: 1.2; pointer-events: all; white-space: normal; overflow-wrap: normal;">LCP RAMFW</div></div></div></foreignObject><text x="862" y="601" fill="rgb(0, 0, 0)" font-family="Helvetica" font-size="12px" text-anchor="middle">LCP RAMFW</text></switch></g><path d="M 685.16 201.63 L 705.16 214.13 L 685.16 226.63 L 685.16 219.63 L 448.07 219.63 C 447.78 219.63 447.5 219.75 447.29 219.95 C 447.09 220.16 446.97 220.44 446.97 220.73 L 446.97 566.87 L 441.47 566.87 L 435.97 566.87 L 435.97 219.63 C 435.97 213.55 440.89 208.63 446.97 208.63 L 685.16 208.63 Z" fill="#9da8b0" stroke="none" transform="rotate(90,570.56,384.25)" pointer-events="all"/><path d="M 862.62 137.39 L 882.62 149.89 L 862.62 162.39 L 862.62 155.39 L 508.32 155.39 C 508.03 155.39 507.75 155.51 507.54 155.71 C 507.34 155.92 507.22 156.2 507.22 156.49 L 507.22 748.35 L 501.72 748.35 L 496.22 748.35 L 496.22 155.39 C 496.22 149.31 501.14 144.39 507.22 144.39 L 862.62 144.39 Z" fill="#9da8b0" stroke="none" transform="rotate(90,689.42,442.87)" pointer-events="all"/><rect x="50.6" y="579" width="141.19" height="27.5" fill="none" stroke="#95d600" stroke-width="2" pointer-events="all"/><g transform="translate(-0.5 -0.5)"><switch><foreignObject pointer-events="none" width="100%" height="100%" requiredFeatures="http://www.w3.org/TR/SVG11/feature#Extensibility" style="overflow: visible; text-align: left;"><div xmlns="http://www.w3.org/1999/xhtml" style="display: flex; align-items: unsafe center; justify-content: unsafe center; width: 139px; height: 1px; padding-top: 593px; margin-left: 52px;"><div data-drawio-colors="color: rgb(0, 0, 0); " style="box-sizing: border-box; font-size: 0px; text-align: center;"><div style="display: inline-block; font-size: 12px; font-family: Helvetica; color: rgb(0, 0, 0); line-height: 1.2; pointer-events: all; white-space: normal; overflow-wrap: normal;">RSS Execution</div></div></div></foreignObject><text x="121" y="596" fill="rgb(0, 0, 0)" font-family="Helvetica" font-size="12px" text-anchor="middle">RSS Execution</text></switch></g><rect x="50.6" y="657.72" width="140.59" height="31.28" fill="none" stroke="#ffc700" stroke-width="2" pointer-events="all"/><g transform="translate(-0.5 -0.5)"><switch><foreignObject pointer-events="none" width="100%" height="100%" requiredFeatures="http://www.w3.org/TR/SVG11/feature#Extensibility" style="overflow: visible; text-align: left;"><div xmlns="http://www.w3.org/1999/xhtml" style="display: flex; align-items: unsafe center; justify-content: unsafe center; width: 139px; height: 1px; padding-top: 673px; margin-left: 52px;"><div data-drawio-colors="color: rgb(0, 0, 0); " style="box-sizing: border-box; font-size: 0px; text-align: center;"><div style="display: inline-block; font-size: 12px; font-family: Helvetica; color: rgb(0, 0, 0); line-height: 1.2; pointer-events: all; white-space: normal; overflow-wrap: normal;">Safety Island (SI)<br />Execution</div></div></div></foreignObject><text x="121" y="677" fill="rgb(0, 0, 0)" font-family="Helvetica" font-size="12px" text-anchor="middle">Safety Island (SI)...</text></switch></g><rect x="50.6" y="697.72" width="140.59" height="31.28" fill="none" stroke="#ff6b00" stroke-width="2" pointer-events="all"/><g transform="translate(-0.5 -0.5)"><switch><foreignObject pointer-events="none" width="100%" height="100%" requiredFeatures="http://www.w3.org/TR/SVG11/feature#Extensibility" style="overflow: visible; text-align: left;"><div xmlns="http://www.w3.org/1999/xhtml" style="display: flex; align-items: unsafe center; justify-content: unsafe center; width: 139px; height: 1px; padding-top: 713px; margin-left: 52px;"><div data-drawio-colors="color: rgb(0, 0, 0); " style="box-sizing: border-box; font-size: 0px; text-align: center;"><div style="display: inline-block; font-size: 12px; font-family: Helvetica; color: rgb(0, 0, 0); line-height: 1.2; pointer-events: all; white-space: normal; overflow-wrap: normal;">AP Secure Execution</div></div></div></foreignObject><text x="121" y="717" fill="rgb(0, 0, 0)" font-family="Helvetica" font-size="12px" text-anchor="middle">AP Secure Execution</text></switch></g><rect x="50" y="739" width="141.19" height="30" fill="none" stroke="#002b49" stroke-width="2" pointer-events="all"/><g transform="translate(-0.5 -0.5)"><switch><foreignObject pointer-events="none" width="100%" height="100%" requiredFeatures="http://www.w3.org/TR/SVG11/feature#Extensibility" style="overflow: visible; text-align: left;"><div xmlns="http://www.w3.org/1999/xhtml" style="display: flex; align-items: unsafe center; justify-content: unsafe center; width: 139px; height: 1px; padding-top: 754px; margin-left: 51px;"><div data-drawio-colors="color: rgb(0, 0, 0); " style="box-sizing: border-box; font-size: 0px; text-align: center;"><div style="display: inline-block; font-size: 12px; font-family: Helvetica; color: rgb(0, 0, 0); line-height: 1.2; pointer-events: all; white-space: normal; overflow-wrap: normal;">AP Normal Execution</div></div></div></foreignObject><text x="121" y="758" fill="rgb(0, 0, 0)" font-family="Helvetica" font-size="12px" text-anchor="middle">AP Normal Execution</text></switch></g><path d="M 121.19 725 L 141.19 737.5 L 121.19 750 L 121.19 743 L 113.29 743 C 113 743 112.72 743.12 112.51 743.32 C 112.31 743.53 112.19 743.81 112.19 744.1 L 112.19 869 L 106.69 869 L 101.19 869 L 101.19 743 C 101.19 736.92 106.11 732 112.19 732 L 121.19 732 Z" fill="#7d868c" stroke="none" transform="rotate(90,121.19,797)" pointer-events="all"/><rect x="89" y="794" width="60" height="20" fill="none" stroke="none" pointer-events="all"/><g transform="translate(-0.5 -0.5)"><switch><foreignObject pointer-events="none" width="100%" height="100%" requiredFeatures="http://www.w3.org/TR/SVG11/feature#Extensibility" style="overflow: visible; text-align: left;"><div xmlns="http://www.w3.org/1999/xhtml" style="display: flex; align-items: unsafe center; justify-content: unsafe center; width: 58px; height: 1px; padding-top: 804px; margin-left: 90px;"><div data-drawio-colors="color: rgb(0, 0, 0); " style="box-sizing: border-box; font-size: 0px; text-align: center;"><div style="display: inline-block; font-size: 12px; font-family: Helvetica; color: rgb(0, 0, 0); line-height: 1.2; pointer-events: all; white-space: normal; overflow-wrap: normal;">Data Flow</div></div></div></foreignObject><text x="119" y="808" fill="rgb(0, 0, 0)" font-family="Helvetica" font-size="12px" text-anchor="middle">Data Flow</text></switch></g><path d="M 50.6 829 L 181.2 829 L 181.19 848.9" fill="none" stroke="#333e48" stroke-width="3" stroke-miterlimit="10" pointer-events="stroke"/><path d="M 181.19 855.65 L 176.69 846.64 L 181.19 848.9 L 185.69 846.65 Z" fill="#333e48" stroke="#333e48" stroke-width="3" stroke-miterlimit="10" pointer-events="all"/><rect x="82.79" y="839" width="76.81" height="20" fill="none" stroke="none" pointer-events="all"/><g transform="translate(-0.5 -0.5)"><switch><foreignObject pointer-events="none" width="100%" height="100%" requiredFeatures="http://www.w3.org/TR/SVG11/feature#Extensibility" style="overflow: visible; text-align: left;"><div xmlns="http://www.w3.org/1999/xhtml" style="display: flex; align-items: unsafe center; justify-content: unsafe center; width: 75px; height: 1px; padding-top: 849px; margin-left: 84px;"><div data-drawio-colors="color: rgb(0, 0, 0); " style="box-sizing: border-box; font-size: 0px; text-align: center;"><div style="display: inline-block; font-size: 12px; font-family: Helvetica; color: rgb(0, 0, 0); line-height: 1.2; pointer-events: all; white-space: normal; overflow-wrap: normal;">Program Flow</div></div></div></foreignObject><text x="121" y="853" fill="rgb(0, 0, 0)" font-family="Helvetica" font-size="12px" text-anchor="middle">Program Flow</text></switch></g><path d="M 50.6 868 L 181.2 868 L 181.19 887.9" fill="none" stroke="#00ccff" stroke-width="3" stroke-miterlimit="10" pointer-events="stroke"/><path d="M 181.19 894.65 L 176.69 885.64 L 181.19 887.9 L 185.69 885.65 Z" fill="#00ccff" stroke="#00ccff" stroke-width="3" stroke-miterlimit="10" pointer-events="all"/><rect x="61.19" y="879" width="110" height="20" fill="none" stroke="none" pointer-events="all"/><g transform="translate(-0.5 -0.5)"><switch><foreignObject pointer-events="none" width="100%" height="100%" requiredFeatures="http://www.w3.org/TR/SVG11/feature#Extensibility" style="overflow: visible; text-align: left;"><div xmlns="http://www.w3.org/1999/xhtml" style="display: flex; align-items: unsafe center; justify-content: unsafe center; width: 108px; height: 1px; padding-top: 889px; margin-left: 62px;"><div data-drawio-colors="color: rgb(0, 0, 0); " style="box-sizing: border-box; font-size: 0px; text-align: center;"><div style="display: inline-block; font-size: 12px; font-family: Helvetica; color: rgb(0, 0, 0); line-height: 1.2; pointer-events: all; white-space: normal; overflow-wrap: normal;">Power On / Reset</div></div></div></foreignObject><text x="116" y="893" fill="rgb(0, 0, 0)" font-family="Helvetica" font-size="12px" text-anchor="middle">Power On / Reset</text></switch></g><path d="M 420.23 219.48 L 440.23 231.98 L 420.23 244.48 L 420.23 237.48 L 383.46 237.48 C 383.17 237.48 382.89 237.6 382.68 237.8 C 382.48 238.01 382.36 238.29 382.36 238.58 L 382.36 349.41 L 376.86 349.41 L 371.36 349.41 L 371.36 237.48 C 371.36 231.4 376.28 226.48 382.36 226.48 L 420.23 226.48 Z" fill="#9da8b0" stroke="none" transform="rotate(90,405.8,284.44)" pointer-events="all"/><path d="M 921 760 L 921 80" fill="none" stroke="#333e48" stroke-miterlimit="10" stroke-dasharray="3 3" pointer-events="stroke"/><rect x="825" y="60.26" width="70" height="30" fill="none" stroke="none" pointer-events="all"/><g transform="translate(-0.5 -0.5)"><switch><foreignObject pointer-events="none" width="100%" height="100%" requiredFeatures="http://www.w3.org/TR/SVG11/feature#Extensibility" style="overflow: visible; text-align: left;"><div xmlns="http://www.w3.org/1999/xhtml" style="display: flex; align-items: unsafe center; justify-content: unsafe center; width: 68px; height: 1px; padding-top: 75px; margin-left: 826px;"><div data-drawio-colors="color: #333E48; " style="box-sizing: border-box; font-size: 0px; text-align: center;"><div style="display: inline-block; font-size: 12px; font-family: Helvetica; color: rgb(51, 62, 72); line-height: 1.2; pointer-events: all; white-space: normal; overflow-wrap: normal;">LCP SRAM</div></div></div></foreignObject><text x="860" y="79" fill="#333E48" font-family="Helvetica" font-size="12px" text-anchor="middle">LCP SRAM</text></switch></g><rect x="880" y="606.08" width="20" height="10" fill="none" stroke="none" pointer-events="all"/><g transform="translate(-0.5 -0.5)"><switch><foreignObject pointer-events="none" width="100%" height="100%" requiredFeatures="http://www.w3.org/TR/SVG11/feature#Extensibility" style="overflow: visible; text-align: left;"><div xmlns="http://www.w3.org/1999/xhtml" style="display: flex; align-items: unsafe center; justify-content: unsafe center; width: 18px; height: 1px; padding-top: 611px; margin-left: 881px;"><div data-drawio-colors="color: rgb(0, 0, 0); " style="box-sizing: border-box; font-size: 0px; text-align: center;"><div style="display: inline-block; font-size: 12px; font-family: Helvetica; color: rgb(0, 0, 0); line-height: 1.2; pointer-events: all; white-space: normal; overflow-wrap: normal;">x16</div></div></div></foreignObject><text x="890" y="615" fill="rgb(0, 0, 0)" font-family="Helvetica" font-size="12px" text-anchor="middle">x16</text></switch></g><path d="M 462 359 L 462 597.7 L 811.9 597.72" fill="none" stroke="#00ccff" stroke-width="3" stroke-miterlimit="10" pointer-events="stroke"/><path d="M 818.65 597.72 L 809.65 602.22 L 811.9 597.72 L 809.65 593.22 Z" fill="#00ccff" stroke="#00ccff" stroke-width="3" stroke-miterlimit="10" pointer-events="all"/><rect x="941" y="640.72" width="80" height="40" fill="none" stroke="#ff6b00" stroke-width="2" pointer-events="all"/><g transform="translate(-0.5 -0.5)"><switch><foreignObject pointer-events="none" width="100%" height="100%" requiredFeatures="http://www.w3.org/TR/SVG11/feature#Extensibility" style="overflow: visible; text-align: left;"><div xmlns="http://www.w3.org/1999/xhtml" style="display: flex; align-items: unsafe center; justify-content: unsafe center; width: 78px; height: 1px; padding-top: 661px; margin-left: 942px;"><div data-drawio-colors="color: rgb(0, 0, 0); " style="box-sizing: border-box; font-size: 0px; text-align: center;"><div style="display: inline-block; font-size: 12px; font-family: Helvetica; color: rgb(0, 0, 0); line-height: 1.2; pointer-events: all; white-space: normal; overflow-wrap: normal;">AP BL2</div></div></div></foreignObject><text x="981" y="664" fill="rgb(0, 0, 0)" font-family="Helvetica" font-size="12px" text-anchor="middle">AP BL2</text></switch></g><path d="M 1059.5 664.68 L 1079.5 677.18 L 1059.5 689.68 L 1059.5 682.68 L 1027.14 682.68 C 1026.85 682.68 1026.57 682.8 1026.36 683 C 1026.16 683.21 1026.04 683.49 1026.04 683.78 L 1026.04 715.5 L 1020.54 715.5 L 1015.04 715.5 L 1015.04 682.68 C 1015.04 676.6 1019.96 671.68 1026.04 671.68 L 1059.5 671.68 Z" fill="#9da8b0" stroke="none" transform="rotate(90,1047.27,690.09)" pointer-events="all"/><path d="M 981 680.72 L 981 740.8 L 1009.9 740.79" fill="none" stroke="#333e48" stroke-width="3" stroke-miterlimit="10" pointer-events="stroke"/><path d="M 1016.65 740.78 L 1007.65 745.29 L 1009.9 740.79 L 1007.64 736.29 Z" fill="#333e48" stroke="#333e48" stroke-width="3" stroke-miterlimit="10" pointer-events="all"/><rect x="50.6" y="619" width="140.59" height="30" fill="none" stroke="#0091bd" stroke-width="2" pointer-events="all"/><g transform="translate(-0.5 -0.5)"><switch><foreignObject pointer-events="none" width="100%" height="100%" requiredFeatures="http://www.w3.org/TR/SVG11/feature#Extensibility" style="overflow: visible; text-align: left;"><div xmlns="http://www.w3.org/1999/xhtml" style="display: flex; align-items: unsafe center; justify-content: unsafe center; width: 139px; height: 1px; padding-top: 634px; margin-left: 52px;"><div data-drawio-colors="color: rgb(0, 0, 0); " style="box-sizing: border-box; font-size: 0px; text-align: center;"><div style="display: inline-block; font-size: 12px; font-family: Helvetica; color: rgb(0, 0, 0); line-height: 1.2; pointer-events: all; white-space: normal; overflow-wrap: normal;">SCP/LCP Execution</div></div></div></foreignObject><text x="121" y="638" fill="rgb(0, 0, 0)" font-family="Helvetica" font-size="12px" text-anchor="middle">SCP/LCP Execution</text></switch></g><path d="M 799 660 L 800 80.06" fill="none" stroke="#333e48" stroke-miterlimit="10" stroke-dasharray="3 3" pointer-events="stroke"/><rect x="348" y="250" width="13" height="11" fill="#ffffff" stroke="#fafafa" stroke-width="0.1" pointer-events="all"/><path d="M 336.54 186.37 L 356.54 198.87 L 336.54 211.37 L 336.54 204.37 L 244.57 204.37 C 244.28 204.37 244 204.49 243.79 204.69 C 243.59 204.9 243.47 205.18 243.47 205.47 L 243.47 331.72 L 237.97 331.72 L 232.47 331.72 L 232.47 204.37 C 232.47 198.29 237.39 193.37 243.47 193.37 L 336.54 193.37 Z" fill="#9da8b0" stroke="none" transform="rotate(90,294.51,259.04)" pointer-events="all"/><path d="M 1250.06 698.97 L 1270.06 711.47 L 1250.06 723.97 L 1250.06 716.97 L 1148.57 716.97 C 1148.28 716.97 1148 717.09 1147.79 717.29 C 1147.59 717.5 1147.47 717.78 1147.47 718.07 L 1147.47 906.35 L 1141.97 906.35 L 1136.47 906.35 L 1136.47 716.97 C 1136.47 710.89 1141.39 705.97 1147.47 705.97 L 1250.06 705.97 Z" fill="#9da8b0" stroke="none" transform="rotate(90,1203.27,802.66)" pointer-events="all"/><rect x="1139" y="803.78" width="80" height="40" fill="none" stroke="#ff6b00" stroke-width="2" pointer-events="all"/><g transform="translate(-0.5 -0.5)"><switch><foreignObject pointer-events="none" width="100%" height="100%" requiredFeatures="http://www.w3.org/TR/SVG11/feature#Extensibility" style="overflow: visible; text-align: left;"><div xmlns="http://www.w3.org/1999/xhtml" style="display: flex; align-items: unsafe center; justify-content: unsafe center; width: 78px; height: 1px; padding-top: 824px; margin-left: 1140px;"><div data-drawio-colors="color: rgb(0, 0, 0); " style="box-sizing: border-box; font-size: 0px; text-align: center;"><div style="display: inline-block; font-size: 12px; font-family: Helvetica; color: rgb(0, 0, 0); line-height: 1.2; pointer-events: all; white-space: normal; overflow-wrap: normal;">AP BL32</div></div></div></foreignObject><text x="1179" y="827" fill="rgb(0, 0, 0)" font-family="Helvetica" font-size="12px" text-anchor="middle">AP BL32</text></switch></g><path d="M 1241 970 L 1241 81" fill="none" stroke="#333e48" stroke-miterlimit="10" stroke-dasharray="3 3" pointer-events="stroke"/><rect x="1125.09" y="60" width="107.81" height="30" fill="none" stroke="none" pointer-events="all"/><g transform="translate(-0.5 -0.5)"><switch><foreignObject pointer-events="none" width="100%" height="100%" requiredFeatures="http://www.w3.org/TR/SVG11/feature#Extensibility" style="overflow: visible; text-align: left;"><div xmlns="http://www.w3.org/1999/xhtml" style="display: flex; align-items: unsafe center; justify-content: unsafe center; width: 106px; height: 1px; padding-top: 75px; margin-left: 1126px;"><div data-drawio-colors="color: #333E48; " style="box-sizing: border-box; font-size: 0px; text-align: center;"><div style="display: inline-block; font-size: 12px; font-family: Helvetica; color: rgb(51, 62, 72); line-height: 1.2; pointer-events: all; white-space: normal; overflow-wrap: normal;">Secure DRAM</div></div></div></foreignObject><text x="1179" y="79" fill="#333E48" font-family="Helvetica" font-size="12px" text-anchor="middle">Secure DRAM</text></switch></g><path d="M 1060 760.78 L 1060 823.8 L 1128.9 823.78" fill="none" stroke="#333e48" stroke-width="3" stroke-miterlimit="10" pointer-events="stroke"/><path d="M 1135.65 823.78 L 1126.65 828.28 L 1128.9 823.78 L 1126.64 819.28 Z" fill="#333e48" stroke="#333e48" stroke-width="3" stroke-miterlimit="10" pointer-events="all"/><path d="M 1120 840 L 1120 79" fill="none" stroke="#333e48" stroke-miterlimit="10" stroke-dasharray="3 3" pointer-events="stroke"/><rect x="0" y="0" width="1480" height="990" fill="none" stroke="none" pointer-events="all"/><g transform="translate(-0.5 -0.5)"><switch><foreignObject pointer-events="none" width="100%" height="100%" requiredFeatures="http://www.w3.org/TR/SVG11/feature#Extensibility" style="overflow: visible; text-align: left;"><div xmlns="http://www.w3.org/1999/xhtml" style="display: flex; align-items: unsafe flex-start; justify-content: unsafe center; width: 1478px; height: 1px; padding-top: 7px; margin-left: 1px;"><div data-drawio-colors="color: rgb(0, 0, 0); " style="box-sizing: border-box; font-size: 0px; text-align: center;"><div style="display: inline-block; font-size: 24px; font-family: Helvetica; color: rgb(0, 0, 0); line-height: 1.2; pointer-events: all; font-weight: bold; white-space: normal; overflow-wrap: normal;">RSS-oriented Boot Flow</div></div></div></foreignObject><text x="740" y="31" fill="rgb(0, 0, 0)" font-family="Helvetica" font-size="24px" text-anchor="middle" font-weight="bold">RSS-oriented Boot Flow</text></switch></g></g><switch><g requiredFeatures="http://www.w3.org/TR/SVG11/feature#Extensibility"/><a transform="translate(0,-5)" xlink:href="https://www.drawio.com/doc/faq/svg-export-text-problems" target="_blank"><text text-anchor="middle" font-size="10px" x="50%" y="100%">Text is not SVG - cannot display</text></a></switch></svg>